<?xml version="1.0" encoding="UTF-8"?><svg id="color" xmlns="http://www.w3.org/2000/svg" viewBox="0 0 612 612"><defs><style>.cls-1{fill:#060607;}.cls-2{fill:#839afd;}.cls-3{fill:#060708;}.cls-4{fill:#fdd41e;}.cls-5{fill:#f1692e;}.cls-6{fill:#090805;}.cls-7{fill:#070704;}.cls-8{fill:#f2cc2a;}</style></defs><g id="LOGO_ExTENded"><path class="cls-4" d="M216.47,149.16c25.75-72.48,76.73-114.8,152.85-125.07,56.11-7.57,104.78,10.88,146.61,48.04,5.52,4.9,10.41,10.45,16.6,14.71,4.09,2.82,6.93,7.04,7.47,12.33-.41,2.19,1.4,3.34,2.38,4.82,16.22,24.42,25.72,51.3,29.12,80.33,5.77,49.27-8.68,93.14-35.65,133.8-38.49,58.02-88.64,104.92-141.22,149.61-25.99,22.1-53.77,41.83-80.95,62.37-5.56,3.35-9.44,2.11-11.48-4.19,9.67-35.26,19.52-70.45,26.06-106.49,8.54-47,14.07-94.13,8.26-141.93-4.01-32.99-16.89-61.81-40.1-85.96-22.06-22.95-49.2-35.98-79.95-42.38Zm218.08,10.19c-.66-4.28-4.22-5.88-7.32-7.84-23.55-14.92-47.3-14.95-71.66-1.63-38.65,21.14-40.96,83.37-3.78,107.22,29.06,23.58,69.4,13.38,88.93-10.19,20.42-24.65,20.26-67.95-6.16-87.56Z"/><path class="cls-2" d="M216.47,149.16c30.75,6.39,57.9,19.43,79.95,42.38,23.21,24.14,36.09,52.96,40.1,85.96,5.81,47.8,.27,94.92-8.26,141.93-6.55,36.04-16.4,71.23-26.06,106.49-2.23,6.47-5.71,9-12.22,4.54-2.21-1.52-5.21-1.89-7.85-2.78-7.33-6.01-16.19-9.35-24.38-13.84-50.33-27.63-98.84-57.97-141.23-97.06-21.95-20.24-41.39-42.47-53.41-70.53-26.29-61.36-6.57-132.64,47.63-171.27,6.28-4.48,13.92-7.02,18.96-13.25,27.86-11.55,56.73-16.18,86.78-12.55Zm-41.41,95.04c-20.2,7.51-30.18,23.21-31.82,43.56-1.68,20.87,8.07,37.2,26.19,47.4,8.99,5.06,19.02,9.65,30.07,4.98,11.86,1.65,20.5-4.9,28.74-11.77,19.15-15.95,22.32-44.02,7.84-66.32-12.88-19.82-39.94-27.74-61.02-17.84Z"/><path class="cls-7" d="M313.68,530.09c27.18-20.54,54.95-40.27,80.95-62.37,52.58-44.7,102.73-91.6,141.22-149.61,26.97-40.66,41.42-84.53,35.65-133.8-3.4-29.02-12.9-55.9-29.12-80.33-.98-1.47-2.79-2.62-2.38-4.82,4.24-.77,6.17,2.37,8.24,5.04,42.67,55.04,52.61,115.82,28.61,180.87-18.78,50.91-54.61,90.61-91.54,129.1-26.65,27.78-56.21,52.38-85.04,77.79-4.02,1.44-6.62,4.64-9.44,7.58-16.98,12.53-33.64,25.52-51.01,37.47-18.49,12.73-14.86,16.33-26.15-6.92Z"/><path class="cls-5" d="M390.84,499.55c2.81-2.94,5.42-6.14,9.44-7.57,27.95,5.49,55.77,11.59,81.07,25.32,9.81,5.32,20.55,11.06,16.56,25.72-13.61,13.46-31.42,17.37-49.16,20.8-48.81,9.44-98.26,8.93-147.57,7.24-29.53-1.01-59-4.33-88.35-8.62-34.65-5.06-68.73-12.1-101.35-25.01-11.02-4.36-21.77-9.65-28.17-20.6-2.46-9.68,3.68-14.6,10.73-18.6,15.79-8.95,33.4-12.02,50.97-15.02,8.31-1.42,16.68-2.5,25.02-3.74,5.06,2.32,9.68,5.33,13.86,9.01-4.94,.8-9.92,1.39-14.8,2.44-10.69,2.29-21.48,4.32-31.34,9.39-14.43,7.42-14.89,16.52-1.23,25.53,2.6,1.71,5.43,3.09,8.22,4.49,11.82,5.91,24.4,9.67,37.15,12.83,41.15,10.2,83.08,14.65,125.32,16.32,37.58,1.49,75.08,.65,112.12-6.89,9.81-2,19.56-4.48,28.17-9.9,10.17-6.4,10.6-14.28,.87-21.49-4.48-3.31-9.58-5.9-14.65-8.26-13.68-6.36-28.24-10.03-42.88-13.39Z"/><path class="cls-3" d="M183.89,488.48c-4.18-3.68-8.8-6.68-13.86-9.01-23.77-16.68-47.72-33.15-69.16-52.85-23.78-21.85-45.56-45.05-58.55-75.59-19.86-46.7-14.7-90.83,11.44-133.14,16.12-26.09,39.36-43.91,67.87-55.02,2.69-1.05,5.17-2.16,8.06-1.16-5.04,6.23-12.68,8.77-18.96,13.25-54.2,38.63-73.92,109.91-47.63,171.27,12.02,28.06,31.46,50.29,53.41,70.53,42.39,39.09,90.9,69.43,141.23,97.06,8.19,4.5,17.05,7.83,24.38,13.85-4.66,11.77-4.63,11.7-15.88,6.32-28.34-13.57-55.22-29.77-82.36-45.51Z"/><path class="cls-6" d="M434.55,159.36c-15.15-3.48-30.03-7.12-45.87-2.23-40.96,12.64-59.47,57.39-38.59,94.77,.95,1.7,1.73,3.27,1.7,5.2-37.18-23.84-34.87-86.08,3.78-107.22,24.36-13.32,48.11-13.29,71.66,1.63,3.1,1.96,6.67,3.56,7.32,7.84Z"/><path class="cls-1" d="M211.46,262.97c-8.76-12.79-22.48-15.96-36.4-18.76,21.08-9.89,48.14-1.98,61.02,17.84,14.49,22.3,11.31,50.37-7.84,66.32-8.24,6.86-16.88,13.42-28.74,11.77,9.28-7.57,17.86-15.69,21.8-27.48,6.09-18.41,3.13-35.05-9.84-49.7Z"/><path class="cls-8" d="M211.46,262.97c12.98,14.65,15.94,31.29,9.84,49.7-3.62-16.51-7.62-32.93-9.84-49.7Z"/></g></svg>