<?xml version="1.0" encoding="UTF-8"?><svg id="color" xmlns="http://www.w3.org/2000/svg" viewBox="0 0 612 612"><defs><style>.cls-1{fill:#060607;}.cls-2{fill:#839afd;}.cls-3{fill:#060708;}.cls-4{fill:#fdd41e;}.cls-5{fill:#f1692e;}.cls-6{fill:#090805;}.cls-7{fill:#070704;}</style></defs><g id="FAVICON_extended"><g><path class="cls-4" d="M241.89,214.49c17.67-49.72,52.63-78.75,104.85-85.8,38.49-5.2,71.88,7.46,100.57,32.95,3.79,3.36,7.14,7.17,11.39,10.09,2.81,1.93,4.75,4.83,5.12,8.46-.28,1.5,.96,2.29,1.63,3.3,11.12,16.75,17.64,35.19,19.97,55.1,3.96,33.8-5.95,63.89-24.46,91.78-26.4,39.8-60.81,71.97-96.88,102.63-17.83,15.16-36.89,28.7-55.53,42.78-3.81,2.3-6.48,1.45-7.87-2.87,6.63-24.18,13.39-48.33,17.88-73.05,5.86-32.24,9.65-64.57,5.67-97.36-2.75-22.63-11.59-42.4-27.51-58.96-15.13-15.74-33.75-24.68-54.85-29.07Zm149.6,6.99c-.45-2.94-2.9-4.03-5.02-5.38-16.16-10.23-32.44-10.26-49.16-1.11-26.51,14.5-28.1,57.19-2.59,73.55,19.94,16.18,47.61,9.18,61-6.99,14.01-16.91,13.9-46.61-4.23-60.07Z"/><path class="cls-2" d="M241.89,214.49c21.09,4.39,39.72,13.33,54.85,29.07,15.92,16.56,24.76,36.33,27.51,58.96,3.99,32.79,.19,65.12-5.67,97.36-4.49,24.72-11.25,48.86-17.88,73.05-1.53,4.44-3.92,6.17-8.38,3.11-1.52-1.04-3.58-1.29-5.39-1.91-5.03-4.12-11.11-6.41-16.72-9.49-34.53-18.96-67.8-39.77-96.88-66.58-15.06-13.89-28.39-29.13-36.64-48.38-18.03-42.09-4.5-90.99,32.68-117.49,4.31-3.07,9.55-4.82,13-9.09,19.11-7.92,38.91-11.1,59.53-8.61Zm-28.4,65.2c-13.86,5.15-20.7,15.92-21.83,29.88-1.15,14.31,5.54,25.52,17.97,32.52,6.17,3.47,13.05,6.62,20.63,3.42,8.13,1.13,14.06-3.36,19.72-8.07,13.14-10.94,15.31-30.2,5.37-45.5-8.83-13.6-27.4-19.03-41.86-12.24Z"/><path class="cls-7" d="M308.57,475.8c18.64-14.09,37.7-27.63,55.53-42.78,36.07-30.66,70.47-62.83,96.88-102.63,18.5-27.89,28.42-57.99,24.46-91.78-2.33-19.91-8.85-38.35-19.97-55.1-.67-1.01-1.92-1.8-1.63-3.3,2.91-.53,4.23,1.63,5.65,3.46,29.27,37.76,36.09,79.45,19.62,124.08-12.89,34.92-37.46,62.16-62.79,88.56-18.28,19.06-38.56,35.93-58.33,53.36-2.76,.99-4.54,3.18-6.47,5.2-11.65,8.6-23.08,17.5-34.99,25.71-12.68,8.73-10.2,11.2-17.94-4.75Z"/><path class="cls-3" d="M219.54,447.26c-2.87-2.52-6.04-4.59-9.51-6.18-16.31-11.44-32.74-22.74-47.44-36.25-16.31-14.99-31.25-30.91-40.16-51.85-13.62-32.03-10.08-62.31,7.85-91.33,11.05-17.89,27-30.12,46.56-37.75,1.85-.72,3.55-1.48,5.53-.8-3.45,4.27-8.7,6.02-13,9.09-37.18,26.5-50.71,75.4-32.68,117.49,8.25,19.25,21.58,34.5,36.64,48.38,29.08,26.82,62.36,47.63,96.88,66.58,5.62,3.08,11.69,5.37,16.72,9.5-3.2,8.07-3.18,8.03-10.9,4.33-19.44-9.31-37.88-20.42-56.5-31.22Z"/><path class="cls-6" d="M391.49,221.48c-10.39-2.39-20.6-4.88-31.47-1.53-28.1,8.67-40.8,39.37-26.47,65.01,.65,1.17,1.19,2.24,1.16,3.57-25.5-16.36-23.92-59.05,2.59-73.55,16.71-9.14,33-9.12,49.16,1.11,2.13,1.35,4.57,2.44,5.02,5.38Z"/><path class="cls-1" d="M238.45,292.56c-6.01-8.78-15.42-10.95-24.97-12.87,14.46-6.79,33.03-1.36,41.86,12.24,9.94,15.3,7.76,34.56-5.37,45.5-5.65,4.71-11.58,9.21-19.71,8.07,6.36-5.19,12.25-10.77,14.95-18.85,4.18-12.63,2.15-24.04-6.75-34.1Z"/></g><path class="cls-5" d="M306,605c-79.47,0-154.17-30.95-210.36-87.14C39.45,461.67,8.5,386.97,8.5,307.5S39.45,153.33,95.64,97.14C151.83,40.95,226.53,10,306,10s154.17,30.95,210.36,87.14c56.19,56.19,87.14,130.9,87.14,210.36s-30.95,154.17-87.14,210.36c-56.19,56.19-130.9,87.14-210.36,87.14Zm0-557.57c-143.4,0-260.07,116.67-260.07,260.07s116.67,260.07,260.07,260.07,260.07-116.67,260.07-260.07S449.4,47.43,306,47.43Z"/></g></svg>