<?xml version="1.0" encoding="UTF-8"?><svg id="Camada_2" xmlns="http://www.w3.org/2000/svg" viewBox="0 0 43.94 43.94"><g id="NEW_ICONS"><g id="add"><path d="M21.97,43.94C9.85,43.94,0,34.08,0,21.97S9.85,0,21.97,0s21.97,9.85,21.97,21.97-9.85,21.97-21.97,21.97Zm0-40.27C11.87,3.66,3.66,11.87,3.66,21.97s8.21,18.31,18.31,18.31,18.31-8.21,18.31-18.31S32.06,3.66,21.97,3.66Z"/><path d="M31.28,18.65h-5.99v-5.99c0-1.72-1.4-3.12-3.12-3.12h-.39c-1.72,0-3.12,1.4-3.12,3.12v5.99h-5.99c-1.72,0-3.12,1.4-3.12,3.12v.39c0,1.72,1.4,3.12,3.12,3.12h5.99v5.99c0,1.72,1.4,3.12,3.12,3.12h.39c1.72,0,3.12-1.4,3.12-3.12v-5.99h5.99c1.72,0,3.12-1.4,3.12-3.12v-.39c0-1.72-1.4-3.12-3.12-3.12Z"/></g></g></svg>