<?xml version="1.0" encoding="UTF-8"?><svg id="Camada_2" xmlns="http://www.w3.org/2000/svg" viewBox="0 0 46.99 45"><g id="NEW_ICONS"><path id="PHONE" d="M37.18,45c-8.58,0-20.15-5.97-28.14-14.51C2.81,23.83-.39,16.46,.04,9.74,.07,4.36,4.46,0,9.85,0s9.81,4.4,9.81,9.81c0,3.11-1.47,5.98-3.87,7.8,2.83,4.05,8.34,8.31,13.44,11.87,1.81-2.52,4.77-4.09,7.95-4.09,5.41,0,9.81,4.4,9.81,9.81s-4.4,9.81-9.81,9.81ZM9.85,4c-3.2,0-5.81,2.61-5.81,5.81v.13c-.38,5.62,2.44,11.95,7.93,17.82,7.18,7.67,17.78,13.24,25.22,13.24,3.2,0,5.81-2.61,5.81-5.81s-2.61-5.81-5.81-5.81c-2.38,0-4.55,1.49-5.39,3.71l-.9,2.37-2.1-1.43c-9.93-6.78-15.17-11.62-17.54-16.2l-.98-1.9,1.96-.85c2.08-.91,3.43-2.98,3.43-5.27,0-3.2-2.61-5.81-5.81-5.81Z"/></g></svg>