<?xml version="1.0" encoding="UTF-8"?><svg id="Camada_2" xmlns="http://www.w3.org/2000/svg" viewBox="0 0 42 42"><g id="NEW_ICONS"><path id="close" d="M26.66,21l14.17-14.17c1.56-1.56,1.56-4.09,0-5.66-1.56-1.56-4.1-1.56-5.66,0l-14.17,14.17L6.83,1.17C5.27-.39,2.73-.39,1.17,1.17-.39,2.73-.39,5.27,1.17,6.83l14.17,14.17L1.17,35.17c-1.56,1.56-1.56,4.09,0,5.66,.78,.78,1.8,1.17,2.83,1.17s2.05-.39,2.83-1.17l14.17-14.17,14.17,14.17c.78,.78,1.8,1.17,2.83,1.17s2.05-.39,2.83-1.17c1.56-1.56,1.56-4.09,0-5.66l-14.17-14.17Z"/></g></svg>