<?xml version="1.0" encoding="UTF-8"?><svg id="Camada_2" xmlns="http://www.w3.org/2000/svg" viewBox="0 0 39.87 43.16"><g id="NEW_ICONS"><path id="go-back" d="M39.64,18.43c-1.44-6.82-9.28-11.42-20.31-12.16l1.9-3.27c.96-1.65-.72-3.57-2.48-2.85L1.24,7.31c-1.65,.68-1.65,3.02,0,3.69l17.52,7.16c1.76,.72,3.44-1.2,2.48-2.85l-1.75-3.02c7.68,.65,13.48,3.55,14.29,7.37,.84,3.99-3.91,10.75-19.78,17.75-1.52,.67-2.2,2.44-1.53,3.96,.5,1.12,1.59,1.79,2.75,1.79,.4,0,.82-.08,1.21-.26,22.6-9.97,24.25-19.61,23.23-24.47Z"/></g></svg>