<?xml version="1.0" encoding="UTF-8"?><svg id="Camada_2" xmlns="http://www.w3.org/2000/svg" viewBox="0 0 39.72 44"><g id="NEW_ICONS"><g id="notification"><path d="M19.82,44c-3.13,0-5.68-2.55-5.68-5.68H3.88c-1.36,0-2.6-.69-3.3-1.85-.72-1.19-.77-2.64-.12-3.88,.93-1.8,1.33-6.39,1.05-11.99-.09-.78-.14-1.48-.14-2.15C1.37,8.28,9.65,0,19.82,0s18.45,8.28,18.45,18.45c0,.64-.03,1.27-.1,1.89l-.03,.23c-.95,5.24,.06,10.2,1.09,12.06h0c.67,1.2,.65,2.67-.04,3.84-.69,1.17-1.91,1.87-3.27,1.87h-10.43c0,3.13-2.55,5.68-5.68,5.68Zm0-11.35v0h13.34c-1-3.3-1.49-8.03-.62-12.97,.04-.4,.06-.81,.06-1.22,0-7.04-5.73-12.77-12.77-12.77S7.05,11.41,7.05,18.45c0,.47,.03,.96,.11,1.56l.02,.2c.2,3.87,.19,8.79-.74,12.44h13.39Z"/></g></g></svg>