<?xml version="1.0" encoding="UTF-8"?><svg id="Camada_2" xmlns="http://www.w3.org/2000/svg" viewBox="0 0 33.75 46"><defs><style>.cls-1{fill:#ffd513;}</style></defs><g id="NEW_ICONS"><g id="Pin"><g><path d="M16.88,0C7.57,0,0,7.57,0,16.88c0,7.9,11.38,29.12,16.88,29.12,6.41,0,16.87-21.27,16.87-29.12C33.75,7.57,26.18,0,16.88,0Zm.09,41.98c-2.89-1.4-12.97-17.82-12.97-25.1S9.78,4,16.88,4s12.87,5.78,12.87,12.88c0,7.6-9.67,24.2-12.78,25.1Z"/><path class="cls-1" d="M16.88,4c-7.1,0-12.88,5.78-12.88,12.88s10.08,23.7,12.97,25.1c3.11-.9,12.78-17.5,12.78-25.1,0-7.1-5.77-12.88-12.87-12.88Zm0,24c-5.24,0-9.5-4.26-9.5-9.5s4.26-9.5,9.5-9.5,9.5,4.26,9.5,9.5-4.27,9.5-9.5,9.5Z"/></g><g><path d="M16.88,9c-5.24,0-9.5,4.26-9.5,9.5s4.26,9.5,9.5,9.5,9.5-4.26,9.5-9.5-4.27-9.5-9.5-9.5Zm0,15c-3.04,0-5.5-2.47-5.5-5.5s2.46-5.5,5.5-5.5,5.5,2.47,5.5,5.5-2.47,5.5-5.5,5.5Z"/><circle class="cls-1" cx="16.88" cy="18.5" r="5.5"/></g></g></g></svg>