<?xml version="1.0" encoding="UTF-8"?><svg id="Camada_2" xmlns="http://www.w3.org/2000/svg" viewBox="0 0 36.02 45"><g id="NEW_ICONS"><g id="draf_PLay_Icon"><path d="M5.12,45c-.85,0-1.7-.21-2.47-.63-1.64-.9-2.66-2.62-2.66-4.49V5.13C0,3.2,1.06,1.46,2.78,.57c1.71-.88,3.75-.74,5.32,.38l25.77,18.34c1.39,.99,2.19,2.6,2.15,4.3-.04,1.71-.93,3.27-2.37,4.19L7.87,44.2c-.84,.53-1.79,.8-2.75,.8Zm0-40.23s-.1,.01-.17,.04c-.19,.1-.19,.25-.19,.31V39.88c0,.05,0,.21,.18,.31,.19,.1,.31,.02,.35-.01L31.08,23.76c.1-.07,.16-.16,.16-.28,0-.12-.05-.22-.15-.29L5.32,4.84s-.1-.07-.19-.07Z"/></g></g></svg>