<?xml version="1.0" encoding="UTF-8"?><svg id="Camada_2" xmlns="http://www.w3.org/2000/svg" viewBox="0 0 44.7 38.85"><defs><style>.cls-1{fill:#0c0303;}</style></defs><g id="NEW_ICONS"><g id="previous"><path class="cls-1" d="M.59,17.93L17.2,1.32c1.75-1.75,4.61-1.75,6.36,0,1.75,1.75,1.75,4.61,0,6.36l-11.39,11.39c-.12,.12-.15,.26-.15,.35,0,.09,.03,.23,.15,.35l11.39,11.39c.85,.85,1.32,1.98,1.32,3.18s-.47,2.33-1.32,3.18c-.85,.85-1.98,1.32-3.18,1.32s-2.33-.47-3.18-1.32L.59,20.91C.18,20.5-.02,19.96,0,19.42c-.02-.54,.17-1.08,.58-1.49Z"/><path class="cls-1" d="M19.82,19.42c-.02-.54,.17-1.08,.58-1.49L37.02,1.31c1.75-1.75,4.61-1.75,6.36,0s1.75,4.61,0,6.36l-11.39,11.39c-.12,.12-.15,.26-.15,.35,0,.09,.03,.23,.15,.35l11.39,11.39c.85,.85,1.32,1.98,1.32,3.18s-.47,2.33-1.32,3.18c-.85,.85-1.98,1.32-3.18,1.32s-2.33-.47-3.18-1.32L20.4,20.91c-.41-.41-.6-.95-.58-1.49Z"/></g></g></svg>