<?xml version="1.0" encoding="UTF-8"?><svg id="Camada_2" xmlns="http://www.w3.org/2000/svg" viewBox="0 0 46.09 40.65"><g id="NEW_ICONS"><g id="singout"><path d="M27.98,28.44c-2.15,0-3.84,1.42-3.84,3.22v2.56H7.68V6.44H24.14v2.52c0,1.8,1.69,3.22,3.84,3.22s3.84-1.41,3.84-3.22V3.22c0-1.8-1.69-3.22-3.84-3.22H3.84C1.69,0,0,1.41,0,3.22V37.43c0,1.8,1.69,3.22,3.84,3.22H27.98c2.15,0,3.84-1.41,3.84-3.22v-5.77c0-1.8-1.69-3.22-3.84-3.22Z"/><path d="M44.79,17.34l-8.7-4.52c-.88-.46-1.82,.07-2.28,1.28-.29,.76-.35,1.68-.17,2.49h-14.35c-1.2,0-2.2,1.18-2.41,2.87h0c-.12,.95,.01,1.94,.37,2.72,.44,.96,1.18,1.53,1.97,1.53h14.42c-.18,.82-.13,1.73,.17,2.49,.36,.92,.98,1.45,1.65,1.45,.21,0,.43-.05,.64-.16l8.7-4.52c.79-.41,1.3-1.51,1.3-2.81,0-1.3-.51-2.4-1.3-2.82Z"/></g></g></svg>