<?xml version="1.0" encoding="UTF-8"?><svg id="Camada_2" xmlns="http://www.w3.org/2000/svg" viewBox="0 0 49 49"><defs><style>.cls-1{fill:#fff;}.cls-2{fill:#dc2626;}</style></defs><g id="NEW_ICONS"><g id="sos"><g><circle class="cls-2" cx="24.5" cy="24.5" r="23.5"/><path d="M24.5,49C10.99,49,0,38.01,0,24.5S10.99,0,24.5,0s24.5,10.99,24.5,24.5-10.99,24.5-24.5,24.5Zm0-47C12.09,2,2,12.09,2,24.5s10.09,22.5,22.5,22.5,22.5-10.09,22.5-22.5S36.91,2,24.5,2Z"/></g><g><path class="cls-1" d="M13.54,28.21c.61,0,1.05-.11,1.32-.33,.27-.22,.4-.48,.4-.79,0-.28-.1-.51-.31-.69s-.52-.33-.93-.45l-.9-.29c-.61-.2-1.15-.43-1.62-.68-.47-.25-.83-.57-1.09-.97-.25-.4-.38-.9-.38-1.51,0-.94,.36-1.69,1.07-2.24s1.71-.83,2.97-.83c.65,0,1.22,.06,1.73,.19,.5,.12,.9,.31,1.19,.55,.29,.24,.43,.54,.43,.89,0,.26-.06,.48-.18,.67s-.27,.35-.45,.48c-.26-.18-.61-.34-1.04-.47-.43-.13-.91-.2-1.43-.2s-.95,.09-1.22,.26c-.27,.18-.41,.41-.41,.69,0,.23,.09,.41,.27,.55,.18,.14,.45,.27,.82,.38l.93,.29c1.03,.32,1.82,.74,2.38,1.27s.83,1.23,.83,2.12c0,.95-.37,1.73-1.1,2.32-.74,.6-1.8,.89-3.2,.89-.69,0-1.31-.07-1.85-.22-.54-.15-.98-.36-1.3-.65-.32-.28-.48-.61-.48-.99,0-.29,.09-.55,.26-.76,.18-.21,.37-.37,.59-.47,.31,.25,.69,.47,1.15,.67,.46,.2,.98,.3,1.56,.3Z"/><path class="cls-1" d="M29.81,24.86c0,1.18-.23,2.17-.69,2.98-.46,.81-1.09,1.43-1.89,1.84-.8,.42-1.7,.63-2.71,.63s-1.91-.21-2.7-.63c-.79-.42-1.42-1.03-1.87-1.84-.45-.81-.68-1.8-.68-2.98s.23-2.17,.7-2.98,1.09-1.42,1.89-1.84c.79-.41,1.68-.62,2.67-.62s1.9,.21,2.7,.62c.8,.41,1.43,1.03,1.9,1.84,.46,.81,.7,1.8,.7,2.98Zm-2.67,0c0-1.09-.24-1.92-.71-2.48-.47-.57-1.11-.85-1.91-.85s-1.39,.28-1.87,.84c-.48,.56-.71,1.39-.71,2.49s.24,1.95,.71,2.51c.47,.56,1.1,.84,1.9,.84s1.42-.28,1.9-.84c.47-.56,.71-1.4,.71-2.51Z"/><path class="cls-1" d="M34.78,28.21c.61,0,1.05-.11,1.32-.33,.27-.22,.4-.48,.4-.79,0-.28-.1-.51-.31-.69s-.52-.33-.93-.45l-.9-.29c-.61-.2-1.15-.43-1.62-.68-.47-.25-.83-.57-1.09-.97-.25-.4-.38-.9-.38-1.51,0-.94,.36-1.69,1.07-2.24s1.71-.83,2.97-.83c.65,0,1.22,.06,1.73,.19,.5,.12,.9,.31,1.19,.55,.29,.24,.43,.54,.43,.89,0,.26-.06,.48-.18,.67s-.27,.35-.45,.48c-.26-.18-.61-.34-1.04-.47-.43-.13-.91-.2-1.43-.2s-.95,.09-1.22,.26c-.27,.18-.41,.41-.41,.69,0,.23,.09,.41,.27,.55,.18,.14,.45,.27,.82,.38l.93,.29c1.03,.32,1.82,.74,2.38,1.27s.83,1.23,.83,2.12c0,.95-.37,1.73-1.1,2.32-.74,.6-1.8,.89-3.2,.89-.69,0-1.31-.07-1.85-.22-.54-.15-.98-.36-1.3-.65-.32-.28-.48-.61-.48-.99,0-.29,.09-.55,.26-.76,.18-.21,.37-.37,.59-.47,.31,.25,.69,.47,1.15,.67,.46,.2,.98,.3,1.56,.3Z"/></g></g></g></svg>