<?xml version="1.0" encoding="UTF-8"?><svg id="Camada_2" xmlns="http://www.w3.org/2000/svg" viewBox="0 0 43.76 42"><g id="NEW_ICONS"><g id="star-holow"><path d="M10.8,42c-.82,0-1.63-.26-2.32-.76-1.23-.89-1.83-2.37-1.57-3.87l1.76-10.28L1.2,19.81C.11,18.75-.27,17.19,.2,15.75c.47-1.44,1.69-2.47,3.19-2.69l10.33-1.5L18.33,2.2c.67-1.36,2.03-2.2,3.55-2.2s2.88,.84,3.55,2.2h0l4.62,9.36,10.33,1.5c1.5,.22,2.72,1.25,3.19,2.69,.47,1.44,.08,3-1,4.05l-7.47,7.28,1.76,10.28c.26,1.5-.35,2.98-1.57,3.87-1.23,.89-2.83,1-4.16,.3l-9.24-4.86-9.24,4.86c-.58,.31-1.22,.46-1.84,.46ZM21.83,3.97l-5,10.31c-.29,.59-.85,1-1.51,1.09l-11.37,1.65,8.25,7.94c.47,.46,.69,1.12,.58,1.77l-1.94,11.32,10.1-5.39c.58-.31,1.28-.31,1.86,0l10.17,5.34-2.01-11.27c-.11-.65,.1-1.31,.58-1.77l8.23-8.02-11.34-1.57c-.65-.09-1.21-.5-1.51-1.09L21.83,3.97Z"/></g></g></svg>