<?xml version="1.0" encoding="UTF-8"?><svg id="Camada_2" xmlns="http://www.w3.org/2000/svg" viewBox="0 0 44 44"><g id="NEW_ICONS"><g id="time"><path d="M22,44C9.87,44,0,34.13,0,22S9.87,0,22,0s22,9.87,22,22-9.87,22-22,22Zm0-40C12.08,4,4,12.08,4,22s8.08,18,18,18,18-8.08,18-18S31.92,4,22,4Z"/><path d="M33.19,22h-9.69v-4.99c0-1.32-1.07-2.39-2.39-2.39h-.22c-1.32,0-2.39,1.07-2.39,2.39v7.21s0,.03,0,.04c0,.01,0,.03,0,.04,0,1.27,1.04,2.31,2.31,2.31h12.38c1.27,0,2.31-1.04,2.31-2.31s-1.04-2.31-2.31-2.31Z"/></g></g></svg>