<?xml version="1.0" encoding="UTF-8"?><svg id="Camada_2" xmlns="http://www.w3.org/2000/svg" viewBox="0 0 45.99 40.98"><g id="NEW_ICONS"><path id="contact" d="M45.96,25.89c-.66-4.92-3.62-9.11-7.8-11.43,1.52-2.14,2.09-4.91,1.38-7.65-.9-3.47-3.78-6.1-7.34-6.68-.5-.08-1.01-.12-1.52-.12h0c-2.54,0-4.98,1.07-6.71,2.93-1.27,1.37-2.08,3.09-2.34,4.92-.9-.45-1.87-.78-2.9-.94-.56-.09-1.13-.14-1.69-.14h0c-2.82,0-5.54,1.19-7.47,3.26-1.92,2.07-2.9,4.88-2.69,7.7,.14,1.87,.8,3.62,1.87,5.11C4.09,25.42,.78,30.1,.04,35.58c-.17,1.28,.21,2.59,1.04,3.59,.84,1,2.07,1.6,3.38,1.66,2.44,.1,7.15,.15,12.59,.15s10.14-.06,12.59-.15c1.3-.05,2.54-.66,3.38-1.66,.84-1,1.22-2.3,1.04-3.59-.23-1.71-.71-3.33-1.4-4.85,4.04-.01,7.45-.06,9.34-.14,1.17-.05,2.28-.59,3.03-1.49,.75-.89,1.09-2.07,.94-3.23Zm-4.09,1.71c-2.26,.09-6.61,.14-10.99,.14-1.46-1.99-3.34-3.66-5.51-4.87,1.38-1.94,2.04-4.34,1.81-6.82,.34-.1,.68-.19,1.02-.26,0,0,.13,0,.31,0,.46,0,1.28-.04,1.31-.34,.04-.36-1.34-.57-1.34-.57-.66-.28-1.25-.66-1.78-1.12-.44-1.35-1.14-2.57-2.07-3.6-.03-.18-.07-.36-.08-.54-.27-3.6,2.58-6.62,6.12-6.61,.34,0,.68,.03,1.03,.08,2.35,.38,4.31,2.16,4.91,4.46,.79,3.08-.79,6.09-3.55,7.26,0,0-1.57,.23-1.53,.64,.03,.29,.85,.34,1.31,.34,.19,0,.31,0,.31,0,5.2,1.06,9.12,5.35,9.81,10.51,.09,.67-.43,1.28-1.11,1.3Zm-12.37,9.89c-2.55,.1-7.5,.15-12.45,.15s-9.9-.05-12.45-.15c-.75-.03-1.33-.7-1.23-1.45,.77-5.74,5.13-10.52,10.92-11.69,0,0,.14,0,.35,0,.52,0,1.42-.05,1.46-.37,.04-.4-1.5-.63-1.5-.63-2.41-1.02-4.17-3.25-4.37-5.86-.3-4.01,2.87-7.36,6.82-7.36,.38,0,.76,.03,1.15,.09,2.61,.43,4.8,2.4,5.46,4.96,.88,3.42-.87,6.78-3.95,8.08,0,0-1.74,.26-1.7,.72,.03,.33,.94,.37,1.46,.37,.21,0,.35,0,.35,0,5.79,1.18,10.15,5.95,10.92,11.69,.1,.75-.48,1.42-1.23,1.45Z"/></g></svg>