<?xml version="1.0" encoding="UTF-8"?><svg id="Camada_2" xmlns="http://www.w3.org/2000/svg" viewBox="0 0 45.06 45.03"><g id="NEW_ICONS"><path d="M43.47,4.66l-3.07-3.07c-1.03-1.03-2.4-1.6-3.85-1.6s-2.82,.57-3.85,1.6l-3.07,3.07c-.6,.6-1.02,1.33-1.29,2.11-.78,.27-1.51,.69-2.11,1.29L2.8,31.49c-.66,.66-1.14,1.48-1.39,2.37L.21,38.07c-.47,1.66-.15,3.41,.9,4.79,1.03,1.36,2.66,2.18,4.36,2.18,.49,0,.99-.07,1.47-.2l4.23-1.17c.91-.25,1.74-.74,2.41-1.4l23.42-23.42c.61-.61,1.03-1.34,1.29-2.11,.78-.26,1.51-.69,2.11-1.29l3.06-3.06c1.03-1.03,1.6-2.4,1.6-3.85s-.57-2.82-1.6-3.85ZM10.88,39.57c-.2,.2-.45,.35-.73,.43l-4.23,1.17c-.15,.04-.3,.06-.45,.06-1.06,0-1.9-1.02-1.59-2.12l1.19-4.2c.08-.27,.22-.52,.42-.72L28.66,11.01c.25,.49,.56,.95,.96,1.36l3.07,3.07c.4,.4,.87,.71,1.36,.96L10.88,39.57Z"/></g></svg>