<?xml version="1.0" encoding="UTF-8"?><svg id="Camada_2" xmlns="http://www.w3.org/2000/svg" viewBox="0 0 33.75 46"><g id="NEW_ICONS"><g id="Pin"><path d="M16.88,46C11.38,46,0,24.78,0,16.88,0,7.57,7.57,0,16.88,0s16.88,7.57,16.88,16.88c0,7.85-10.46,29.12-16.88,29.12Zm.22-3.97h0Zm-.22-38.03c-7.1,0-12.88,5.78-12.88,12.88s10.08,23.7,12.97,25.1c3.11-.9,12.78-17.49,12.78-25.1,0-7.1-5.78-12.88-12.88-12.88Z"/><path d="M16.88,28c-5.24,0-9.5-4.26-9.5-9.5s4.26-9.5,9.5-9.5,9.5,4.26,9.5,9.5-4.26,9.5-9.5,9.5Zm0-15c-3.03,0-5.5,2.47-5.5,5.5s2.47,5.5,5.5,5.5,5.5-2.47,5.5-5.5-2.47-5.5-5.5-5.5Z"/></g></g></svg>