<?xml version="1.0" encoding="UTF-8"?><svg id="Camada_2" xmlns="http://www.w3.org/2000/svg" viewBox="0 0 45.55 46.75"><g id="NEW_ICONS"><g><path d="M14.48,21.26c.31,0,.63-.08,.91-.25l15.66-9.04c.53-.31,.85-.84,.9-1.41,1.22,1.92,3.36,3.19,5.8,3.19,3.79,0,6.88-3.09,6.88-6.88s-3.09-6.88-6.88-6.88-6.88,3.09-6.88,6.88c0,.69,.11,1.37,.3,2-.56-.39-1.32-.45-1.96-.08l-15.66,9.04c-.88,.51-1.18,1.63-.67,2.5,.34,.59,.96,.92,1.59,.92ZM37.76,3.67c1.77,0,3.21,1.44,3.21,3.21s-1.44,3.21-3.21,3.21-3.21-1.44-3.21-3.21,1.44-3.21,3.21-3.21Z"/><path d="M6.88,17.02c-3.79,0-6.88,3.09-6.88,6.88s3.09,6.88,6.88,6.88,6.88-3.09,6.88-6.88-3.09-6.88-6.88-6.88Zm0,10.09c-1.77,0-3.21-1.44-3.21-3.21s1.44-3.21,3.21-3.21,3.21,1.44,3.21,3.21-1.44,3.21-3.21,3.21Z"/><path d="M38.67,33c-2.63,0-4.92,1.49-6.08,3.67,.02-.65-.3-1.29-.91-1.64l-15.66-9.04c-.88-.51-2-.21-2.5,.67-.51,.88-.21,2,.67,2.5l15.66,9.04c.29,.17,.6,.25,.91,.25,.5,0,.98-.21,1.33-.58-.19,.64-.3,1.31-.3,2.01,0,3.79,3.09,6.88,6.88,6.88s6.88-3.09,6.88-6.88-3.09-6.88-6.88-6.88Zm0,10.09c-1.77,0-3.21-1.44-3.21-3.21s1.44-3.21,3.21-3.21,3.21,1.44,3.21,3.21-1.44,3.21-3.21,3.21Z"/></g></g></svg>