<?xml version="1.0" encoding="UTF-8"?><svg id="Camada_2" xmlns="http://www.w3.org/2000/svg" viewBox="0 0 44.74 26.35"><g id="NEW_ICONS"><g id="sspeaker"><g id="apeaker"><path d="M38.38,24.04h-.01c-.66,0-1.29-.26-1.75-.74-.96-.97-.95-2.55,.02-3.51,4.06-4.02,4.17-10.4,.26-14.84-.79-.9-.83-2.23-.09-3.17,.09-.12,.19-.23,.31-.33,1.03-.91,2.6-.81,3.51,.22,5.68,6.45,5.46,15.75-.49,21.66-.47,.46-1.09,.72-1.75,.72Z"/><path d="M24.94,18.73h-.01c-.57,0-1.1-.23-1.5-.63-.41-.41-.62-.95-.62-1.52,0-.57,.23-1.1,.63-1.5,1.51-1.5,1.54-3.8,.07-5.47-.68-.77-.71-1.92-.08-2.73l.11-.14,.18-.16c.41-.36,.95-.56,1.53-.51,.57,.03,1.09,.29,1.47,.72,2.97,3.37,2.85,8.24-.28,11.33-.4,.4-.93,.62-1.5,.62Zm.86-1.29h0Zm-1.71-1.71h0Z"/><path d="M31.56,22.16c-.61,0-1.21-.23-1.67-.69-.9-.91-.9-2.39,0-3.31,3.18-3.15,3.26-8.13,.21-11.59-.75-.85-.79-2.11-.09-3,.1-.12,.2-.24,.31-.33,.96-.85,2.45-.75,3.31,.22,4.72,5.36,4.54,13.11-.42,18.02-.46,.45-1.06,.68-1.66,.68Z"/></g><path d="M16.82,26.35c-.78,0-1.54-.28-2.14-.79l-6.13-5.26-4.86,.02h-.3c-1.96-.03-3.34-1.42-3.36-3.37,0-.85-.01-1.7-.01-2.55v-4.96c-.01-1.97,1.41-3.39,3.37-3.4h1.98c1.08,0,2.16-.01,3.25,0,1.16-1.01,2.32-2.03,3.49-3.04,.68-.59,1.36-1.18,2.04-1.77l.51-.44c.87-.75,1.99-.98,3.09-.63,1.24,.4,2.06,1.33,2.25,2.56,.1,.63,.09,1.21,.08,1.71,0,.15,0,.3,0,.45,.01,1.93,.02,3.87,.02,5.81l.03,12.1c0,.54-.05,1.27-.5,1.99-.49,.81-1.32,1.37-2.27,1.52-.17,.03-.35,.04-.52,.04Zm-7.63-10.51c.66,0,1.24,.2,1.71,.61l.79,.67c.31,.26,.62,.52,.93,.79l3.02,2.6-.03-9.79c0-1.62,0-3.23-.02-4.85-.19,.17-.39,.33-.58,.5-1.26,1.09-2.52,2.19-3.77,3.29-.66,.57-1.47,.87-2.27,.85-1.2,0-2.41,0-3.61,0h-.91v3.89c0,.49,0,.97,.01,1.46h4.72Zm0,4.44h0Zm-1.2-.46s.02,.01,.02,.02l-.02-.02Zm1.01-13.8h0Zm8.55-1.88h0Z"/></g></g></svg>