<?xml version="1.0" encoding="UTF-8"?><svg id="Camada_2" xmlns="http://www.w3.org/2000/svg" viewBox="0 0 30.67 47.65"><g id="NEW_ICONS"><g id="draft_trash"><g id="trash"><path d="M24.2,21.88c1.65,0,3,1.35,3,3v16.3c0,1.65-1.35,3-3,3H6.47c-1.65,0-3-1.35-3-3V24.88c0-1.65,1.35-3,3-3H24.2m0-3.47H6.47c-3.57,0-6.47,2.9-6.47,6.47v16.3c0,3.57,2.9,6.47,6.47,6.47H24.2c3.57,0,6.47-2.9,6.47-6.47V24.88c0-3.57-2.9-6.47-6.47-6.47h0Z"/><path d="M24.68,12.81c1.38,0,2.52,1.13,2.52,2.52s-1.13,2.52-2.52,2.52H5.99c-1.38,0-2.52-1.13-2.52-2.52s1.13-2.52,2.52-2.52H24.68m0-3.47H5.99c-3.3,0-5.99,2.69-5.99,5.99s2.69,5.99,5.99,5.99H24.68c3.3,0,5.99-2.69,5.99-5.99s-2.69-5.99-5.99-5.99h0Z"/><g><path d="M10.09,39.86c-.4,0-.72-.32-.72-.72v-12.22c0-.4,.32-.72,.72-.72s.72,.32,.72,.72v12.22c0,.4-.32,.72-.72,.72Z"/><path d="M10.09,41.6c-1.35,0-2.45-1.1-2.45-2.45v-12.22c0-1.35,1.1-2.45,2.45-2.45s2.46,1.1,2.46,2.45v12.22c0,1.35-1.1,2.45-2.46,2.45Z"/></g><g><path d="M20.58,39.86c-.4,0-.72-.32-.72-.72v-12.22c0-.4,.32-.72,.72-.72s.72,.32,.72,.72v12.22c0,.4-.32,.72-.72,.72Z"/><path d="M20.58,41.6c-1.35,0-2.46-1.1-2.46-2.45v-12.22c0-1.35,1.1-2.45,2.46-2.45s2.45,1.1,2.45,2.45v12.22c0,1.35-1.1,2.45-2.45,2.45Z"/></g></g><path d="M15.34,3.47c2.25,0,4.13,1.55,4.63,3.64H10.7c.51-2.09,2.39-3.64,4.63-3.64m0-3.47c-3.81,0-7.11,2.59-8.01,6.3l-1.04,4.29H24.38l-1.04-4.29c-.9-3.71-4.19-6.3-8.01-6.3h0Z"/></g></g></svg>