<?xml version="1.0" encoding="UTF-8"?><svg id="Camada_2" xmlns="http://www.w3.org/2000/svg" viewBox="0 0 45.68 45.85"><g id="NEW_ICONS"><path id="user" d="M22.84,4.49c.5,0,1.02,.04,1.54,.13,3.5,.57,6.43,3.21,7.32,6.65,1.18,4.59-1.17,9.08-5.3,10.82,0,0-2.34,.34-2.28,.96,.04,.44,1.26,.5,1.95,.5,.28,0,.47-.01,.47-.01,7.76,1.58,13.6,7.97,14.64,15.67,.14,1-.64,1.9-1.65,1.94-3.42,.14-10.06,.2-16.69,.2s-13.26-.07-16.69-.2c-1.01-.04-1.78-.94-1.65-1.94,1.04-7.7,6.87-14.09,14.64-15.67,0,0,.19,.01,.47,.01,.69,0,1.91-.06,1.95-.5,.05-.54-2-.84-2-.84-3.23-1.36-5.59-4.35-5.85-7.85-.4-5.37,3.85-9.87,9.13-9.87m0-4.49c-3.78,0-7.43,1.59-10.01,4.37-2.58,2.78-3.89,6.54-3.61,10.32,.19,2.51,1.07,4.86,2.5,6.84C5.48,24.99,1.05,31.26,.06,38.61c-.23,1.72,.28,3.48,1.4,4.81,1.13,1.34,2.77,2.15,4.52,2.22,3.27,.13,9.58,.21,16.87,.21s13.59-.08,16.87-.21c1.75-.07,3.4-.88,4.52-2.22,1.12-1.33,1.63-3.09,1.4-4.81-.99-7.33-5.41-13.59-11.64-17.05,2.27-3.19,3.11-7.32,2.06-11.41C34.71,4.96,30.41,1.05,25.1,.18c-.75-.12-1.51-.18-2.26-.18h0Z"/></g></svg>